<?xml version="1.0" standalone="no"?>
<!DOCTYPE svg PUBLIC "-//W3C//DTD SVG 20010904//EN"
 "http://www.w3.org/TR/2001/REC-SVG-20010904/DTD/svg10.dtd">
<svg version="1.0" xmlns="http://www.w3.org/2000/svg"
 width="300.000000pt" height="72.000000pt" viewBox="0 0 300.000000 72.000000"
 preserveAspectRatio="xMidYMid meet">
<metadata>
Created by potrace 1.10, written by Peter Selinger 2001-2011
</metadata>
<g transform="translate(0.000000,72.000000) scale(0.100000,-0.100000)"
fill="#000000" stroke="none">
<path d="M384 627 c-67 -48 -384 -357 -384 -375 0 -30 33 -41 120 -41 48 0 94
5 106 12 19 10 106 86 181 154 52 49 34 20 -25 -40 -34 -34 -62 -70 -62 -79 0
-37 28 -48 120 -48 l88 0 63 52 c35 29 81 70 104 90 55 52 66 48 12 -4 -24
-24 -51 -55 -61 -70 -17 -26 -17 -27 3 -47 18 -18 33 -21 111 -21 l90 0 48 42
c225 203 352 329 352 351 0 10 -9 21 -20 24 -11 3 -20 9 -20 14 0 14 -152 10
-176 -4 -26 -15 -119 -95 -223 -191 -60 -57 -30 -19 49 62 44 44 80 83 80 86
0 3 -11 16 -24 30 -21 24 -31 26 -100 26 -68 0 -110 -10 -126 -29 -19 -23
-150 -131 -150 -124 0 5 15 23 34 41 78 73 50 112 -79 111 -66 0 -85 -4 -111
-22z m130 -100 c-54 -51 -146 -137 -204 -190 l-105 -97 -92 0 c-51 0 -93 3
-92 8 0 4 87 86 192 182 l191 175 85 6 c47 3 95 6 105 7 12 1 -19 -34 -80 -91z
m404 85 c-1 -4 -92 -90 -200 -190 l-197 -183 -94 3 -95 3 194 180 194 180 88
6 c48 3 93 6 100 7 8 1 12 -2 10 -6z m322 -2 c0 -5 -3 -10 -7 -10 -5 0 -26
-17 -48 -38 -22 -21 -109 -102 -193 -180 l-153 -142 -97 0 -97 1 46 42 c25 23
115 106 198 184 l152 142 82 4 c45 1 90 4 100 5 9 1 17 -2 17 -8z"/>
<path d="M1300 622 c-20 -16 -21 -23 -17 -142 3 -69 5 -129 5 -135 0 -5 -2
-64 -3 -130 -5 -178 -30 -165 319 -164 258 2 283 3 305 20 23 19 24 19 56 -1
41 -25 75 -25 107 0 25 19 26 19 43 0 15 -17 31 -20 98 -20 59 0 85 4 98 16
15 14 20 14 41 1 19 -12 75 -15 301 -16 345 -1 323 -12 321 156 -1 158 4 154
-184 152 -81 -1 -152 1 -158 5 -8 5 -12 46 -12 122 0 101 -2 116 -20 134 -11
11 -30 20 -43 20 -24 0 -59 -31 -71 -63 -8 -25 -20 -19 -48 23 l-24 35 -462 2
-461 2 -20 -25 c-11 -14 -22 -30 -24 -37 -3 -7 -20 3 -44 26 -43 41 -70 46
-103 19z m70 -40 c0 -11 24 -35 60 -60 l60 -43 0 61 c0 60 0 60 29 60 l30 0
-2 -115 -1 -115 -28 0 c-21 0 -28 5 -28 19 0 16 -97 101 -115 101 -3 0 -5 -27
-5 -60 0 -60 0 -60 -30 -60 l-29 0 1 115 2 115 28 0 c20 0 28 -5 28 -18z m435
-97 l0 -115 -117 0 -118 0 0 115 0 115 118 0 117 0 0 -115z m263 23 c-3 -93
-3 -93 -28 -90 l-25 4 24 -26 24 -26 -36 0 c-25 0 -40 6 -50 21 -9 12 -29 22
-51 25 -33 4 -36 2 -36 -21 0 -21 -5 -25 -27 -25 l-28 0 0 115 0 115 118 0
118 0 -3 -92z m262 67 c0 -23 -4 -25 -45 -25 l-45 0 0 -90 0 -90 -31 0 -31 0
4 90 3 90 -45 0 c-41 0 -45 2 -45 25 l0 25 118 0 117 0 0 -25z m80 -20 l0 -45
60 0 60 0 0 45 c0 43 1 45 30 45 l30 0 0 -115 0 -115 -30 0 c-29 0 -30 2 -30
45 l0 45 -60 0 -60 0 0 -45 c0 -43 -1 -45 -30 -45 l-30 0 0 115 0 115 30 0
c29 0 30 -2 30 -45z m-270 -102 c0 -27 3 -58 6 -70 6 -20 3 -23 -26 -23 -31 0
-32 1 -26 33 3 17 9 49 12 70 10 56 34 49 34 -10z m170 0 c0 -27 3 -58 6 -70
5 -20 2 -23 -21 -23 -21 0 -26 4 -21 16 3 9 6 40 6 70 0 41 4 54 15 54 11 0
15 -12 15 -47z m178 -65 c-2 -14 -11 -24 -24 -26 -18 -3 -21 1 -17 22 7 34 46
37 41 4z m-1045 -3 c7 -16 -8 -29 -23 -20 -15 9 -12 35 4 35 8 0 16 -7 19 -15z
m793 -67 c-3 -7 -7 -26 -11 -42 -7 -34 -14 -29 -25 18 -7 33 -6 36 16 36 14 0
22 -5 20 -12z m-686 -23 c0 -25 -1 -25 -90 -25 -83 0 -90 -1 -90 -20 0 -19 7
-20 90 -20 l90 0 0 -70 0 -70 -121 0 -120 0 3 27 3 27 88 -3 c83 -3 87 -2 87
18 0 20 -5 21 -90 21 l-90 0 0 70 0 70 120 0 120 0 0 -25z m255 0 c0 -25 -1
-25 -87 -25 -81 0 -88 -2 -88 -20 0 -18 7 -20 88 -20 86 0 87 0 87 -25 0 -25
-1 -25 -87 -25 -83 0 -88 -1 -88 -21 0 -20 5 -21 87 -18 l86 3 1 -27 2 -27
-118 0 -118 0 0 115 0 115 118 0 117 0 0 -25z m265 -71 l0 -96 -27 7 -28 7 24
-26 24 -26 -35 0 c-22 0 -41 7 -52 19 -10 10 -33 21 -52 23 -30 4 -34 1 -34
-19 0 -18 -5 -23 -27 -23 l-28 0 0 115 0 115 117 0 118 0 0 -96z m100 6 l13
-90 32 0 32 0 13 90 13 90 31 0 32 0 -20 -115 -19 -115 -82 0 -82 0 -19 115
-20 115 32 0 31 0 13 -90z m250 -25 l0 -115 -30 0 -30 0 0 115 0 115 30 0 30
0 0 -115z m260 90 c0 -25 -1 -25 -90 -25 l-90 0 0 -65 0 -65 90 7 90 6 0 -32
0 -31 -115 0 -115 0 0 115 0 115 115 0 115 0 0 -25z m260 0 c0 -25 -1 -25 -90
-25 -83 0 -90 -1 -90 -20 0 -19 7 -20 90 -20 89 0 90 0 90 -25 0 -25 -1 -25
-90 -25 -85 0 -90 -1 -90 -21 0 -21 4 -21 90 -17 l90 4 0 -28 0 -28 -115 0
-115 0 0 115 0 115 115 0 115 0 0 -25z m-280 -90 c0 -12 -13 -15 -55 -15 -42
0 -55 3 -55 15 0 12 13 15 55 15 42 0 55 -3 55 -15z"/>
<path d="M1630 488 l0 -63 60 0 60 0 0 63 0 62 -60 0 -60 0 0 -62z"/>
<path d="M1890 510 l0 -40 60 0 60 0 0 40 0 40 -60 0 -60 0 0 -40z"/>
<path d="M1890 230 l0 -40 60 0 60 0 0 40 0 40 -60 0 -60 0 0 -40z"/>
</g>
</svg>
