<?xml version="1.0" standalone="no"?>
<!DOCTYPE svg PUBLIC "-//W3C//DTD SVG 20010904//EN"
 "http://www.w3.org/TR/2001/REC-SVG-20010904/DTD/svg10.dtd">
<svg version="1.0" xmlns="http://www.w3.org/2000/svg"
 width="1195.000000pt" height="287.000000pt" viewBox="0 0 1195.000000 287.000000"
 preserveAspectRatio="xMidYMid meet">
<metadata>
Created by potrace 1.16, written by Peter Selinger 2001-2019
</metadata>
<g transform="translate(0.000000,287.000000) scale(0.100000,-0.100000)"
fill="#000000" stroke="none">
<path d="M0 1435 l0 -1435 5975 0 5975 0 0 1435 0 1435 -5975 0 -5975 0 0
-1435z m2267 883 c-72 -68 -159 -150 -192 -183 -33 -32 -328 -308 -655 -612
l-595 -552 -377 -1 -378 0 143 132 c78 72 189 178 247 235 58 56 348 327 645
602 l540 500 377 0 378 1 -133 -122z m1387 113 c-123 -111 -308 -283 -338
-315 -22 -22 -308 -289 -635 -593 l-596 -552 -375 0 -375 -1 60 58 c34 31 139
131 234 222 95 91 421 395 724 677 l552 512 379 0 c211 1 376 -3 370 -8z
m1251 -10 c-11 -10 -83 -76 -160 -147 -77 -71 -192 -179 -255 -241 -63 -62
-347 -326 -630 -587 l-515 -476 -375 0 -375 0 61 58 c33 31 143 136 245 233
101 96 306 288 454 425 149 137 393 363 543 502 l272 252 377 0 c369 0 377 0
358 -19z m555 -98 l0 -78 232 -165 c127 -91 235 -166 240 -168 4 -2 8 107 8
242 l0 246 110 0 110 0 0 -460 0 -460 -110 0 -110 0 0 75 0 74 -237 170 -238
170 -3 -245 -2 -244 -110 0 -110 0 0 460 0 460 110 0 110 0 0 -77z m1730 -383
l0 -460 -460 0 -460 0 0 460 0 460 460 0 460 0 0 -460z m1038 88 l-3 -373 -84
-3 -85 -3 84 -84 85 -85 -130 0 -130 0 -85 85 -85 85 -132 0 -133 0 0 -85 0
-85 -110 0 -110 0 0 460 0 460 460 0 460 0 -2 -372z m1042 262 l0 -110 -175 0
-175 0 0 -350 0 -350 -110 0 -110 0 0 350 0 350 -175 0 -175 0 0 110 0 110
460 0 460 0 0 -110z m330 -65 l0 -175 240 0 240 0 0 175 0 175 110 0 110 0 0
-460 0 -460 -110 0 -110 0 0 175 0 175 -240 0 -240 0 0 -175 0 -175 -110 0
-110 0 0 460 0 460 110 0 110 0 0 -175z m-3442 -1052 l-3 -108 -347 -3 -348
-2 0 -65 0 -65 348 -2 347 -3 3 -282 2 -283 -460 0 -460 0 0 110 0 110 350 0
350 0 0 65 0 65 -350 0 -350 0 0 285 0 285 460 0 461 0 -3 -107z m1030 0 l-3
-108 -347 -3 -348 -2 0 -65 0 -65 348 -2 347 -3 3 -107 3 -108 -350 0 -351 0
0 -65 0 -65 348 -2 347 -3 1 -107 1 -108 -458 0 -459 0 0 460 0 460 461 0 460
0 -3 -107z m1040 -265 l-3 -373 -84 -3 -85 -3 84 -84 85 -85 -130 0 -130 0
-85 85 -85 85 -132 0 -133 0 0 -85 0 -85 -110 0 -110 0 0 460 0 460 460 0 460
0 -2 -372z m357 350 c7 -31 105 -652 105 -666 0 -9 38 -12 130 -12 126 0 130
1 135 22 3 13 28 169 56 348 28 179 53 326 54 328 1 1 54 1 117 0 l114 -3 -72
-450 c-40 -247 -73 -453 -74 -458 0 -4 -147 -6 -327 -5 l-328 3 -67 415 c-36
228 -69 434 -73 458 l-6 42 115 0 c112 0 116 -1 121 -22z m1045 -438 l0 -460
-110 0 -110 0 0 460 0 460 110 0 110 0 0 -460z m1035 350 l0 -105 -347 -3
-348 -2 0 -240 0 -240 348 -2 347 -3 1 -107 1 -108 -458 0 -459 0 0 460 0 460
458 -2 457 -3 0 -105z m1040 0 l0 -105 -347 -3 -348 -2 0 -65 0 -65 348 -2
347 -3 3 -107 3 -108 -350 0 -351 0 0 -65 0 -65 348 -2 347 -3 1 -107 1 -108
-458 0 -459 0 0 460 0 460 458 -2 457 -3 0 -105z"/>
<path d="M6490 1940 l0 -240 240 0 240 0 0 240 0 240 -240 0 -240 0 0 -240z"/>
<path d="M7530 2025 l0 -155 240 0 240 0 0 155 0 155 -240 0 -240 0 0 -155z"/>
<path d="M7530 905 l0 -155 240 0 240 0 0 155 0 155 -240 0 -240 0 0 -155z"/>
</g>
</svg>
